<svg xmlns="http://www.w3.org/2000/svg" xmlns:xlink="http://www.w3.org/1999/xlink" >
<symbol  viewBox='0 0 100 100' id='email'>
    <path d="M50 0a50 50 0 1 0 0 100A50 50 0 0 0 50 0zm0 92.2a42.2 42.2 0 1 1 0-84.4 42.2 42.2 0 0 1 0 84.4zm0 0"></path><path d="M50 34.4H25v31.3h50V34.4zm0 3.1h17.5L50 50 32.5 37.5zm-21.9.9l10.6 7.2-10.6 11.6zM50 62.5H32L40.9 47l9.1 6.2 9.1-6.2L68 62.5zm21.9-5.3L61.2 45.6l10.6-7.2zm0 0"></path>
  </symbol>
  <symbol  viewBox='0 0 100 100' id='house'>
    <path d="M37.2 54.4h10.2v10.2H37.2zm14.7 10.2h10.2V54.4H51.9zM37.2 79.9h10.2V69.7H37.2zm14.7 0h10.2V69.7H51.9zM100 50A50 50 0 1 1 0 50a50 50 0 0 1 100 0zM9.5 50l.2 3.4 40-27.1 40.7 27.5.2-3.9a40.6 40.6 0 0 0-81.1.1zm78.6 13.8l-38.4-26-37.9 25.6a40.6 40.6 0 0 0 76.3.4zm0 0"></path>
  </symbol>
  <symbol  viewBox='0 0 100 100' id='phone'>
    <path d="M50 6.3a43.8 43.8 0 0 1 0 87.5 43.8 43.8 0 0 1 0-87.5M50 0a50 50 0 1 0 0 100A50 50 0 0 0 50 0zm27.9 66.7l-.3-.9a8 8 0 0 0-4.8-4.6l-7.4-2c-2-.5-4.9.2-6.3 1.7l-2.7 2.7a28.6 28.6 0 0 1-20-20l2.7-2.7a7.3 7.3 0 0 0 1.7-6.3l-2-7.4c-.5-2-2.6-4.2-4.6-4.8l-.8-.3c-2-.7-4.8 0-6.3 1.5l-4 4c-.7.7-1.2 2.7-1.2 2.7A47.3 47.3 0 0 0 69.5 78c.1 0 2.2-.4 2.9-1.2l4-4c1.5-1.3 2.1-4.1 1.5-6.1zm0 0"></path>
  </symbol></svg>