<svg xmlns="http://www.w3.org/2000/svg" xmlns:xlink="http://www.w3.org/1999/xlink" >
<symbol  viewBox='0 -10 512 512' id='website'>
     <g fill="#ff9f1c" ><path  d="M452 0H60C27 0 0 27 0 60v352c0 33 27 60 60 60h178v-40H60c-11 0-20-9-20-20V160h432v72h40V60c0-33-27-60-60-60zM40 120V60c0-11 9-20 20-20h392c11 0 20 9 20 20v60zm70-40a20 20 0 1 1-40 0 20 20 0 0 1 40 0zm70 0a20 20 0 1 1-40 0 20 20 0 0 1 40 0zm212 172a120.1 120.1 0 1 0 120 120c0-66.2-53.8-120-120-120zm77.5 100h-22a238 238 0 0 0-6.7-43.3 80.2 80.2 0 0 1 28.7 43.3zm-93 40h31c-2.5 31-10.3 50.7-15.5 58-5.2-7.3-13-27-15.5-58zm0-40c2.5-31 10.3-50.7 15.5-58 5.2 7.3 13 27 15.5 58zm-33.3-43.3a241 241 0 0 0-6.8 43.3h-21.9a80.2 80.2 0 0 1 28.7-43.3zM314.5 392h22a238 238 0 0 0 6.7 43.3 80.2 80.2 0 0 1-28.7-43.3zm126.3 43.3a241 241 0 0 0 6.8-43.3h21.9a80.2 80.2 0 0 1-28.7 43.3zm0 0"></path></g>
  </symbol><symbol  viewBox='0 0 512 512' id='menu'>
     <g  fill="#ff9f1c"><path d="M512 148H188V0h324zm-284-40h244V40H228zm284 404H188V364h324zm-284-40h244v-68H228zm284-142H188V182h324zm-284-40h244v-68H228zm-80-142H0V0h148zM40 108h68V40H40zm108 404H0V364h148zM40 472h68v-68H40zm108-142H0V182h148zM40 290h68v-68H40zm0 0"></path></g>
  </symbol><symbol  viewBox='0 0 512 512' id='notepad'>
     <g  fill="#ff9f1c"><path d="M452 40h-24V0h-40v40h-62V0h-40v40h-60V0h-40v40h-62V0H84v40H60C27 40 0 67 0 100v352c0 33 27 60 60 60h392c33 0 60-27 60-60V100c0-33-27-60-60-60zm20 412c0 11-9 20-20 20H60c-11 0-20-9-20-20v-43h392v-40H40v-61h392v-40H40v-58h392v-40H40v-70c0-11 9-20 20-20h24v40h40V80h62v40h40V80h60v40h40V80h62v40h40V80h24c11 0 20 9 20 20zm0 0"></path></g>
  </symbol><symbol  viewBox='0 0 512 512' id='square'>
     <g  fill="#ff9f1c"><path d="M512 144H368V0h144zm-104-40h64V40h-64zm104 408H368V368h144zm-104-40h64v-64h-64zm104-144H368V184h144zm-104-40h64v-64h-64zM144 144H0V0h144zM40 104h64V40H40zm104 408H0V368h144zM40 472h64v-64H40zm104-144H0V184h144zM40 288h64v-64H40zm288-144H184V0h144zm-104-40h64V40h-64zm104 408H184V368h144zm-104-40h64v-64h-64zm104-144H184V184h144zm-104-40h64v-64h-64zm0 0"></path></g>
  </symbol><symbol  viewBox='0 0 512 512' id='email'>
     <g  fill="#ff9f1c"><path d="M427 127.6V0H85v127.6L0 191v261c0 33 27 60 60 60h392c33 0 60-27 60-60V191zm29.8 72.1L427 222v-44.4zM387 40v211.6l-131 97.5-131-97.5V40zM85 221.9l-29.8-22.2L85 177.5zM452 472H60c-11 0-20-9-20-20V238.3l216 160.6 216-160.6V452c0 11-9 20-20 20zM276 173h-40v-40h40zm72 0h-40v-40h40zm-145 0h-40v-40h40zm0 0"></path></g>
  </symbol><symbol  viewBox='0 0 512 512' id='restore'>
     <g fill="#ff9f1c"><path d="M452 0H60C27 0 0 27 0 60v392c0 33 27 60 60 60h392c33 0 60-27 60-60V60c0-33-27-60-60-60zm20 452c0 11-9 20-20 20H60c-11 0-20-9-20-20V60c0-11 9-20 20-20h392c11 0 20 9 20 20zM280 351h40v81H80V236c0-22 18-40 40-40h32v40h-32v35h32v40h-32v81h160zM392 80H232c-22 0-40 18-40 40v191h240V120c0-22-18-40-40-40zm0 40v35H232v-35zM232 271v-76h160v76zm0 0"></path></g>
  </symbol></svg>